<svg xmlns="http://www.w3.org/2000/svg" viewBox="0 0 70.16 89.9"><defs><style>.cls-1{fill:#231f20;}</style></defs><g id="Layer_2" data-name="Layer 2"><g id="Layer_1-2" data-name="Layer 1"><path class="cls-1" d="M35.25,29.89a8.42,8.42,0,1,0,8.42,8.42A8.43,8.43,0,0,0,35.25,29.89Zm0,12.84a4.42,4.42,0,1,1,4.42-4.42A4.43,4.43,0,0,1,35.25,42.73Z"/><path class="cls-1" d="M70.16,20.45,49.71,0H11.46V11.28H0V89.9H58.71V78.62H70.16ZM50.88,6.83,63.34,19.28H50.88ZM54.71,85.9H4V15.28h7.46V78.62H54.71Zm4-11.28H15.46V4H46.88V23.28H66.16V74.62Z"/><path class="cls-1" d="M48.45,29.34a15.87,15.87,0,0,0-26.41,0A16.63,16.63,0,0,0,20.64,45,89.14,89.14,0,0,0,26,55.09c.84,1.42,1.7,2.89,2.49,4.33l6.8,12.32L42,59.42c.79-1.44,1.65-2.91,2.49-4.33A89.14,89.14,0,0,0,49.85,45,16.6,16.6,0,0,0,49,30.22C48.82,29.92,48.64,29.63,48.45,29.34ZM46.17,43.48a86.44,86.44,0,0,1-5.09,9.58c-.85,1.45-1.73,2.94-2.54,4.42l-3.29,6-3.29-6c-.82-1.48-1.7-3-2.54-4.42a84.88,84.88,0,0,1-5.1-9.58,12.62,12.62,0,0,1,1.06-11.93,11.86,11.86,0,0,1,19.73,0A12.62,12.62,0,0,1,46.17,43.48Z"/></g></g></svg>