<svg xmlns="http://www.w3.org/2000/svg" viewBox="0 0 55.25 90.87"><defs><style>.cls-1{fill:#231f20;}</style></defs><g id="Layer_2" data-name="Layer 2"><g id="Layer_1-2" data-name="Layer 1"><path class="cls-1" d="M15.24,61.36c.53.92,1.06,1.85,1.57,2.77H7.51L0,90.87H55.25L47.74,64.13h-9.3l.6-1c1.25-2.23,2.56-4.49,3.84-6.68a157.91,157.91,0,0,0,9.46-17.81A28.17,28.17,0,0,0,50,12,26.32,26.32,0,0,0,27.62,0c-.57,0-1.14,0-1.7.05A27.47,27.47,0,0,0,23,.39,26.15,26.15,0,0,0,5.3,12,28.17,28.17,0,0,0,2.91,38.59,119.87,119.87,0,0,0,9.24,51c1,1.82,2.08,3.62,3.13,5.39l.86,1.48c.46.79.93,1.58,1.39,2.39ZM50,86.87H5.28l5.26-18.74H19l8.61,15.62,8.62-15.62h8.47ZM27.62,4a22.4,22.4,0,0,1,19,10.16,24.16,24.16,0,0,1,2,22.86,153.77,153.77,0,0,1-9.22,17.36c-1.51,2.58-3.07,5.24-4.52,7.88l-3.24,5.87h0l-4.05,7.33-4-7.33h0l-3.24-5.87c-1.45-2.64-3-5.31-4.52-7.88-1.32-2.25-2.65-4.52-3.94-6.82A108,108,0,0,1,6.6,37a24.18,24.18,0,0,1,2-22.87,22.34,22.34,0,0,1,12-9.09c.1,0,.2-.06.3-.09A23.37,23.37,0,0,1,26.17,4C26.65,4,27.14,4,27.62,4Z"/><path class="cls-1" d="M10.5,27.14A17.13,17.13,0,1,0,27.62,10,17.14,17.14,0,0,0,10.5,27.14ZM27.62,14A13.13,13.13,0,1,1,14.5,27.14,13.15,13.15,0,0,1,27.62,14Z"/></g></g></svg>