<svg xmlns="http://www.w3.org/2000/svg" viewBox="0 0 69.46 101.63"><defs><style>.cls-1{fill:#040077;}.cls-2{fill:#95f7ff;}.cls-3{fill:#008ece;}.cls-4{fill:#00e3a9;}</style></defs><g id="Layer_2" data-name="Layer 2"><g id="Layer_1-2" data-name="Layer 1"><path class="cls-1" d="M0,101.63l10.53-37.5H14.6A158,158,0,0,1,5.06,46.07,33.55,33.55,0,0,1,7.91,14.36,31.64,31.64,0,0,1,34.73,0,31.64,31.64,0,0,1,61.55,14.36,33.55,33.55,0,0,1,64.4,46.07a158,158,0,0,1-9.54,18.06h4.07l10.53,37.5Z"/><path class="cls-2" d="M43.76,68.61C48.37,60.25,53.87,52,57.6,43.19,64.65,26.58,53.35,7.38,34.73,7.38S4.81,26.58,11.86,43.19C15.59,52,21.09,60.25,25.7,68.61l1.6,2.9H42.16Z"/><circle class="cls-1" cx="34.73" cy="32.52" r="15.13"/><polygon class="cls-3" points="16.13 71.51 9.74 94.25 59.72 94.25 53.33 71.51 47.74 71.51 42.16 71.51 27.3 71.51 22.91 71.51 16.13 71.51"/><polygon class="cls-4" points="42.16 71.51 27.3 71.51 34.69 84.91 42.16 71.51"/></g></g></svg>