<svg xmlns="http://www.w3.org/2000/svg" viewBox="0 0 75.08 83.96"><defs><style>.cls-1{fill:#231f20;}</style></defs><g id="Layer_2" data-name="Layer 2"><g id="Layer_1-2" data-name="Layer 1"><path class="cls-1" d="M71,10.49a23.56,23.56,0,0,0-39.9,1.1,23.91,23.91,0,0,0-7.39-1.16A23.13,23.13,0,0,0,4.09,20.92,24.73,24.73,0,0,0,2,44.3a136.53,136.53,0,0,0,8.22,15.5c1.3,2.22,2.65,4.51,3.89,6.76L23.7,84l9.6-17.4c1.23-2.25,2.58-4.54,3.88-6.76,1.12-1.92,2.26-3.88,3.37-5.86.42.73.83,1.45,1.24,2.19l9.59,17.4L61,56.13c1.23-2.25,2.58-4.54,3.88-6.75a136.67,136.67,0,0,0,8.22-15.51A24.73,24.73,0,0,0,71,10.49ZM33.72,57.78c-1.31,2.24-2.66,4.55-3.93,6.85L23.7,75.68,17.61,64.63C16.35,62.33,15,60,13.67,57.78a135.71,135.71,0,0,1-8-15A20.75,20.75,0,0,1,7.43,23.13a19.19,19.19,0,0,1,16.27-8.7,19.6,19.6,0,0,1,7.57,1.47,18.8,18.8,0,0,1,6.47,4.45,20.57,20.57,0,0,1,5.63,15.07,20.84,20.84,0,0,1-1.65,7.32c-.8,1.87-1.77,3.9-3,6.19C37.17,51.9,35.42,54.89,33.72,57.78Zm8.6-40.42.11-.15a10.89,10.89,0,0,1,.87-1l.06-.06a10.78,10.78,0,0,1,1-.92l.08-.07a11.23,11.23,0,0,1,1.09-.76l.17-.11a12.46,12.46,0,0,1,1.15-.59l.21-.09a10.38,10.38,0,0,1,1.22-.43l.21-.06a11.7,11.7,0,0,1,1.31-.27l.16,0a11.32,11.32,0,0,1,1.43-.1,11.14,11.14,0,1,1,0,22.28c-.4,0-.8,0-1.2-.07l-.36,0c-.28,0-.56-.09-.83-.15l-.39-.09a9.18,9.18,0,0,1-.89-.28l-.25-.08-.07,0s0-.09,0-.14c0-.6,0-1.21-.1-1.81,0-.09,0-.18,0-.27q-.1-.93-.27-1.83c0-.13,0-.25-.07-.37-.11-.6-.25-1.2-.41-1.79l-.09-.3c-.18-.61-.37-1.21-.59-1.8v0c-.22-.59-.48-1.18-.75-1.76,0-.09-.08-.19-.13-.28-.26-.56-.55-1.1-.86-1.63,0-.1-.11-.2-.17-.3-.32-.53-.66-1.06-1-1.56a1.18,1.18,0,0,0-.13-.18c-.36-.5-.73-1-1.13-1.46l-.07-.09.06-.11A9.4,9.4,0,0,1,42.32,17.36Zm27.08,15a132.33,132.33,0,0,1-8,15c-1.31,2.24-2.67,4.56-3.94,6.85l-6.09,11-6.09-11c-.83-1.5-1.68-3-2.5-4.39.08-.14.14-.28.21-.42l.32-.61.53-1.1c.07-.14.15-.29.21-.43.2-.4.38-.8.56-1.19l.15-.31c.22-.49.43-1,.63-1.45s.49-1.25.7-1.88c.06-.17.11-.33.16-.5.18-.56.33-1.13.47-1.7l.06-.25c.12-.54.23-1.07.31-1.62l.56.15.27.07a13.24,13.24,0,0,0,1.53.27l.3,0c.54,0,1.08.09,1.62.09a15.14,15.14,0,0,0,0-30.28c-.36,0-.72,0-1.08,0l-.34,0c-.24,0-.48,0-.72.08l-.39.06L48.18,9l-.39.08-.66.18-.35.1L46,9.67l-.22.08q-.49.2-1,.42l-.2.1c-.24.12-.48.24-.72.38l-.3.18-.58.36-.32.22-.54.39-.3.24-.54.46-.24.22c-.26.23-.5.47-.74.72h0c-.24.25-.46.51-.68.78l-.22.27c-.14.19-.28.37-.42.57l-.23.34c-.06.1-.13.19-.2.29-.3-.24-.62-.46-.93-.69s-.53-.42-.81-.61-.79-.49-1.19-.73-.52-.33-.8-.48l-.06,0a19.56,19.56,0,0,1,32.83-.46A20.72,20.72,0,0,1,69.4,32.31Z"/><path class="cls-1" d="M38.52,31.14a15.13,15.13,0,0,0-7.85-10.32h0a14.9,14.9,0,0,0-7-1.71A15.13,15.13,0,1,0,38.84,34.26,15.36,15.36,0,0,0,38.52,31.14Zm-5.07,8.5A11.14,11.14,0,1,1,23.7,23.12,11.73,11.73,0,0,1,25,23.2a10.93,10.93,0,0,1,3.79,1.18,11.11,11.11,0,0,1,4.63,15.26Z"/></g></g></svg>