<svg xmlns="http://www.w3.org/2000/svg" viewBox="0 0 101.23 101.23"><defs><style>.cls-1{fill:#040077;}.cls-2{fill:#008ece;}.cls-3{fill:#95f7ff;}.cls-4{fill:#00e3a9;}</style></defs><g id="Layer_2" data-name="Layer 2"><g id="Layer_1-2" data-name="Layer 1"><path class="cls-1" d="M38.46,101.23V90.45A41.37,41.37,0,0,1,10.79,62.78H0V38.46H10.79A41.35,41.35,0,0,1,38.46,10.79V0H62.78V10.79A41.37,41.37,0,0,1,90.45,38.46h10.78V62.78H90.45A41.39,41.39,0,0,1,62.78,90.45v10.78Z"/><path class="cls-2" d="M68,46.77A17.83,17.83,0,0,0,54.47,33.24a17.45,17.45,0,0,0-7.7,0A17.83,17.83,0,0,0,33.24,46.77a17.45,17.45,0,0,0,0,7.7A17.83,17.83,0,0,0,46.77,68a17.86,17.86,0,0,0,7.7,0A17.83,17.83,0,0,0,68,54.47a17.86,17.86,0,0,0,0-7.7Z"/><path class="cls-3" d="M83.71,46.77A33.39,33.39,0,0,0,54.47,17.52V8.31h-7.7v9.21A33.38,33.38,0,0,0,17.53,46.77H8.31v7.7h9.22A33.37,33.37,0,0,0,46.77,83.71v9.21h7.7V83.71A33.38,33.38,0,0,0,83.71,54.47h9.21v-7.7ZM68,46.77H61v7.7H76A25.68,25.68,0,0,1,54.47,76V61h-7.7V76A25.67,25.67,0,0,1,25.28,54.47H40.21v-7.7H25.28A25.67,25.67,0,0,1,46.77,25.28V40.21h7.7V25.28A25.67,25.67,0,0,1,76,46.77H68Z"/><path class="cls-4" d="M54.46,40.21v-7a17.41,17.41,0,0,0-7.69,0v7Z"/><path class="cls-4" d="M40.21,46.77h-7a17.41,17.41,0,0,0,0,7.69h7Z"/><path class="cls-4" d="M61,54.46h7a17.81,17.81,0,0,0,0-7.69H61Z"/><path class="cls-4" d="M46.77,61v7a17.81,17.81,0,0,0,7.69,0V61Z"/></g></g></svg>