<svg xmlns="http://www.w3.org/2000/svg" viewBox="0 0 83.95 83.95"><defs><style>.cls-1{fill:#231f20;}</style></defs><g id="Layer_2" data-name="Layer 2"><g id="Layer_1-2" data-name="Layer 1"><path class="cls-1" d="M84,40H74.54A32.66,32.66,0,0,0,44,9.41V0H40V9.41A32.66,32.66,0,0,0,9.41,40H0v4H9.41A32.66,32.66,0,0,0,40,74.54V84h4V74.54A32.66,32.66,0,0,0,74.54,44H84ZM70.53,40H63.82A22,22,0,0,0,44,20.13V13.42A28.66,28.66,0,0,1,70.53,40ZM59.79,44A17.94,17.94,0,0,1,44,59.79v-5H40v5A18,18,0,0,1,24.15,44h5V40h-5A18,18,0,0,1,40,24.15v5h4v-5A18,18,0,0,1,59.79,40h-5v4ZM40,13.42v6.71A22,22,0,0,0,20.13,40H13.42A28.66,28.66,0,0,1,40,13.42ZM13.42,44h6.71A22,22,0,0,0,40,63.82v6.71A28.66,28.66,0,0,1,13.42,44ZM44,70.53V63.82A22,22,0,0,0,63.82,44h6.71A28.66,28.66,0,0,1,44,70.53Z"/></g></g></svg>