<svg xmlns="http://www.w3.org/2000/svg" viewBox="0 0 81.89 101.63"><defs><style>.cls-1{fill:#040077;}.cls-2{fill:#008ece;}.cls-3{fill:#95f7ff;}.cls-4{fill:#00e3a9;}</style></defs><g id="Layer_2" data-name="Layer 2"><g id="Layer_1-2" data-name="Layer 1"><polygon class="cls-1" points="0 101.63 0 11.28 11.46 11.28 11.46 0 58.01 0 81.89 23.89 81.89 90.35 70.43 90.35 70.43 101.63 0 101.63"/><polygon class="cls-2" points="54.75 19.15 52.25 19.15 19.32 19.15 19.32 19.15 7.86 19.15 7.86 93.77 62.57 93.77 62.57 82.48 62.57 82.48 62.57 33.83 62.57 27.15 62.57 19.15 54.75 19.15"/><polygon class="cls-3" points="54.75 7.86 54.75 7.86 19.32 7.86 19.32 19.15 19.32 82.48 62.57 82.48 74.03 82.48 74.03 27.15 74.03 27.15 54.75 7.86"/><polygon class="cls-4" points="54.75 19.15 52.25 19.15 19.32 19.15 19.32 82.48 62.57 82.48 62.57 33.83 62.57 27.15 62.57 19.15 54.75 19.15"/><path class="cls-1" d="M41.11,30.14c-10.39,0-16.7,10.71-12.77,20,2.08,4.91,5.16,9.53,7.73,14.19L37,65.93l4.15,7.53,4.15-7.53.89-1.62c2.57-4.66,5.65-9.28,7.73-14.19C57.81,40.85,51.5,30.14,41.11,30.14Zm0,22.48a8.45,8.45,0,1,1,8.45-8.45A8.45,8.45,0,0,1,41.11,52.62Z"/><polygon class="cls-2" points="54.75 7.86 54.75 19.15 54.75 27.15 62.57 27.15 74.03 27.15 54.75 7.86"/></g></g></svg>