<svg xmlns="http://www.w3.org/2000/svg" viewBox="0 0 86.59 101.63"><defs><style>.cls-1{fill:#939598;}.cls-2{fill:#bcbec0;}.cls-3{fill:#fff;}.cls-4{fill:#e6e7e8;}</style></defs><g id="Layer_2" data-name="Layer 2"><g id="Layer_1-2" data-name="Layer 1"><path class="cls-1" d="M14.82,75.09c-1.2-2.18-2.46-4.34-3.8-6.62A140.15,140.15,0,0,1,2.46,52.3,30.48,30.48,0,0,1,5.05,23.5,28.79,28.79,0,0,1,29.46,10.43a29.7,29.7,0,0,1,4.92.4A29.14,29.14,0,0,1,57.14,0a28.78,28.78,0,0,1,24.4,13.07,30.45,30.45,0,0,1,2.59,28.8A140.92,140.92,0,0,1,75.58,58c-1.34,2.28-2.61,4.44-3.81,6.62L57.14,91.2,46.2,71.37c-.73,1.25-1.43,2.48-2.11,3.72L29.46,101.63Z"/><path class="cls-2" d="M44.94,24.72a20.94,20.94,0,0,0-7.15-4.91,21.48,21.48,0,0,0-8.33-1.63c-16.17,0-26,16.67-19.86,31.09,3.23,7.63,8,14.82,12,22.08.47.84.93,1.68,1.39,2.52q3.22,5.85,6.46,11.7l6.45-11.7,1.39-2.52c2.87-5.22,6.14-10.4,9-15.73,1.1-2.09,2.14-4.2,3.06-6.35a23.24,23.24,0,0,0,1.81-8A22.61,22.61,0,0,0,44.94,24.72ZM29.46,53.15A13.12,13.12,0,1,1,41,46.36,13.14,13.14,0,0,1,29.46,53.15Z"/><path class="cls-3" d="M57.14,7.75A21.28,21.28,0,0,0,37.79,19.81a22.85,22.85,0,0,0-.51,19c1.08,2.54,2.34,5,3.68,7.51,1.69,3.12,3.51,6.19,5.3,9.26,1,1.76,2.06,3.53,3,5.3.47.84.93,1.68,1.39,2.52q3.23,5.85,6.46,11.71l6.45-11.71L65,60.92c4-7.26,8.78-14.45,12-22.07C83.12,24.42,73.31,7.75,57.14,7.75Zm0,35A13.14,13.14,0,1,1,70.28,29.59,13,13,0,0,1,57.14,42.72Z"/><path class="cls-4" d="M51.13,41.26a13.11,13.11,0,0,1-6.19-16.54,20.94,20.94,0,0,0-7.15-4.91,22.71,22.71,0,0,0-2.29,8.54,13.15,13.15,0,0,1,5.46,18c1.69,3.12,3.51,6.19,5.3,9.26,1.1-2.09,2.14-4.2,3.06-6.35A23.24,23.24,0,0,0,51.13,41.26Z"/></g></g></svg>